<svg width="154" height="54" viewBox="0 0 154 54" fill="none" xmlns="http://www.w3.org/2000/svg">
<path fill-rule="evenodd" clip-rule="evenodd" d="M74.0132 3.00006V6.35983H64.0967V11.5783H74.0009V14.8989H60.4021V3.00006H74.0132ZM112.808 3.00006V6.32064H103.677V7.26965H112.808V10.5901H103.677V11.5783H112.808V14.8989H99.9824V3.00006H112.808ZM122.88 3.00004L128.217 8.31941V3.00004H131.949V14.8989L128.259 14.8985L122.88 9.49938V14.8985H119.149V3.00004H122.88ZM54.0223 3.00005V14.8989H50.339V12.2221H44.8475V14.8989H41.1641V3.00005H54.0223ZM25.6947 3V7.14175H31.0897V3H34.7924V14.8988H31.0897V10.6719H25.6947V14.8988H22V3H25.6947ZM84.0817 3V7.09873H89.8092V3H93.498V7.09873H93.4784L89.8092 10.6308H84.0817V14.8988H80.3848V3H84.0817ZM93.506 10.6309V14.8989H89.8091L89.8092 10.6308L93.506 10.6309ZM50.339 6.31049H44.8475V8.91175H50.339V6.31049Z" fill="#2BE2B3"/>
<path d="M23.3603 28.781V25.9158H25.6859V24.9068H23.3603V23.1743H26.0465V22.1367H22.1738V28.781H23.3603ZM35.8945 22.0225C36.2931 22.0225 36.6522 22.0875 36.9718 22.2176C37.2914 22.3477 37.5635 22.5508 37.7881 22.8268C38.0127 23.1029 38.1868 23.4583 38.3102 23.893C38.4335 24.3277 38.4952 24.8496 38.4952 25.4589C38.4952 26.0681 38.4335 26.59 38.3102 27.0248C38.1868 27.4595 38.0127 27.8148 37.7881 28.0909C37.5635 28.3669 37.2914 28.57 36.9718 28.7001C36.6522 28.8302 36.2931 28.8953 35.8945 28.8953C35.4958 28.8953 35.1367 28.8302 34.8171 28.7001C34.4976 28.57 34.2254 28.3669 34.0008 28.0909C33.7762 27.8148 33.6021 27.4595 33.4787 27.0248C33.3554 26.59 33.2937 26.0681 33.2937 25.4589C33.2937 24.8496 33.3554 24.3277 33.4787 23.893C33.6021 23.4583 33.7762 23.1029 34.0008 22.8268C34.2254 22.5508 34.4976 22.3477 34.8171 22.2176C35.1367 22.0875 35.4958 22.0225 35.8945 22.0225ZM35.8945 23.0696C35.4641 23.0696 35.1319 23.2044 34.8978 23.4741C34.6637 23.7438 34.5466 24.1294 34.5466 24.6307V26.287L34.5563 26.528C34.5889 26.9137 34.7027 27.2188 34.8978 27.4436C35.1319 27.7133 35.4641 27.8482 35.8945 27.8482C36.3248 27.8482 36.657 27.7133 36.8911 27.4436C37.1252 27.1739 37.2423 26.7884 37.2423 26.287V24.6307L37.2326 24.3897C37.2 24.0041 37.0862 23.6989 36.8911 23.4741C36.657 23.2044 36.3248 23.0696 35.8945 23.0696ZM48.0331 28.8953C48.4634 28.8953 48.8257 28.8445 49.1199 28.743C49.4142 28.6414 49.653 28.4844 49.8366 28.2718C50.0201 28.0592 50.1514 27.7879 50.2305 27.4579C50.3096 27.1279 50.3491 26.7344 50.3491 26.2775V22.1367H49.1626V26.4488C49.1626 26.9375 49.0819 27.296 48.9206 27.5245C48.7592 27.753 48.4634 27.8672 48.0331 27.8672C47.6028 27.8672 47.3069 27.753 47.1456 27.5245C46.9842 27.296 46.9035 26.9375 46.9035 26.4488V22.1367H45.717V26.2775C45.717 26.7344 45.7566 27.1279 45.8357 27.4579C45.9148 27.7879 46.0461 28.0592 46.2296 28.2718C46.4131 28.4844 46.652 28.6414 46.9463 28.743C47.2405 28.8445 47.6028 28.8953 48.0331 28.8953ZM58.9378 28.781V25.04L58.8618 23.8501H58.9947L59.4598 25.0019L61.2918 28.781H62.6111V22.1367H61.4911V25.8777L61.567 27.0676H61.4341L60.969 25.9158L59.1371 22.1367H57.8177V28.781H58.9378ZM72.3863 28.781C72.7849 28.781 73.1409 28.7192 73.4541 28.5954C73.7673 28.4717 74.0331 28.2749 74.2514 28.0052C74.4698 27.7355 74.6359 27.3912 74.7498 26.9724C74.8637 26.5536 74.9206 26.049 74.9206 25.4589C74.9206 24.8687 74.8637 24.3642 74.7498 23.9453C74.6359 23.5265 74.4698 23.1822 74.2514 22.9125C74.0331 22.6428 73.7673 22.4461 73.4541 22.3223C73.1409 22.1986 72.7849 22.1367 72.3863 22.1367H70.1272V28.781H72.3863ZM72.3863 27.7434H71.3137V23.1743H72.3863C72.7913 23.1743 73.1045 23.2996 73.326 23.5503C73.5475 23.8009 73.6582 24.177 73.6582 24.6783V26.2394C73.6582 26.7408 73.5475 27.1168 73.326 27.3674C73.1045 27.6181 72.7913 27.7434 72.3863 27.7434ZM82.579 28.781L83.0442 27.0486H85.1798L85.645 28.781H86.8125L84.8761 22.1367H83.3764L81.44 28.781H82.579ZM84.8951 26.0871H83.3289L83.832 24.269L84.0408 23.2123H84.1737L84.3825 24.269L84.8951 26.0871ZM95.6479 28.781V23.1743H97.3185V22.1367H92.8003V23.1743H94.4614V28.781H95.6479ZM106.885 28.781V27.8386H106.097V23.0791H106.885V22.1367H104.123V23.0791H104.91V27.8386H104.123V28.781H106.885ZM116.518 28.8953C116.916 28.8953 117.275 28.8302 117.595 28.7001C117.914 28.57 118.187 28.3669 118.411 28.0909C118.636 27.8148 118.81 27.4595 118.933 27.0248C119.057 26.59 119.118 26.0681 119.118 25.4589C119.118 24.8496 119.057 24.3277 118.933 23.893C118.81 23.4583 118.636 23.1029 118.411 22.8268C118.187 22.5508 117.914 22.3477 117.595 22.2176C117.275 22.0875 116.916 22.0225 116.518 22.0225C116.119 22.0225 115.76 22.0875 115.44 22.2176C115.121 22.3477 114.849 22.5508 114.624 22.8268C114.399 23.1029 114.225 23.4583 114.102 23.893C113.978 24.3277 113.917 24.8496 113.917 25.4589C113.917 26.0681 113.978 26.59 114.102 27.0248C114.225 27.4595 114.399 27.8148 114.624 28.0909C114.849 28.3669 115.121 28.57 115.44 28.7001C115.76 28.8302 116.119 28.8953 116.518 28.8953ZM116.518 27.8482C116.087 27.8482 115.755 27.7133 115.521 27.4436C115.287 27.1739 115.17 26.7884 115.17 26.287V24.6307C115.17 24.1294 115.287 23.7438 115.521 23.4741C115.755 23.2044 116.087 23.0696 116.518 23.0696C116.948 23.0696 117.28 23.2044 117.514 23.4741C117.748 23.7438 117.865 24.1294 117.865 24.6307V26.287C117.865 26.7884 117.748 27.1739 117.514 27.4436C117.28 27.7133 116.948 27.8482 116.518 27.8482ZM128.101 28.6668V24.9258L128.025 23.7359H128.158L128.623 24.8877L130.455 28.6668H131.774V22.0225H130.654V25.7635L130.73 26.9534H130.597L130.132 25.8015L128.3 22.0225H126.981V28.6668H128.101Z" fill="#88888D"/>
<path d="M23.3603 28.781V25.9158H25.6859V24.9068H23.3603V23.1743H26.0465V22.1367H22.1738V28.781H23.3603ZM35.8945 22.0225C36.2931 22.0225 36.6522 22.0875 36.9718 22.2176C37.2914 22.3477 37.5635 22.5508 37.7881 22.8268C38.0127 23.1029 38.1868 23.4583 38.3102 23.893C38.4335 24.3277 38.4952 24.8496 38.4952 25.4589C38.4952 26.0681 38.4335 26.59 38.3102 27.0248C38.1868 27.4595 38.0127 27.8148 37.7881 28.0909C37.5635 28.3669 37.2914 28.57 36.9718 28.7001C36.6522 28.8302 36.2931 28.8953 35.8945 28.8953C35.4958 28.8953 35.1367 28.8302 34.8171 28.7001C34.4976 28.57 34.2254 28.3669 34.0008 28.0909C33.7762 27.8148 33.6021 27.4595 33.4787 27.0248C33.3554 26.59 33.2937 26.0681 33.2937 25.4589C33.2937 24.8496 33.3554 24.3277 33.4787 23.893C33.6021 23.4583 33.7762 23.1029 34.0008 22.8268C34.2254 22.5508 34.4976 22.3477 34.8171 22.2176C35.1367 22.0875 35.4958 22.0225 35.8945 22.0225ZM35.8945 23.0696C35.4641 23.0696 35.1319 23.2044 34.8978 23.4741C34.6637 23.7438 34.5466 24.1294 34.5466 24.6307V26.287L34.5563 26.528C34.5889 26.9137 34.7027 27.2188 34.8978 27.4436C35.1319 27.7133 35.4641 27.8482 35.8945 27.8482C36.3248 27.8482 36.657 27.7133 36.8911 27.4436C37.1252 27.1739 37.2423 26.7884 37.2423 26.287V24.6307L37.2326 24.3897C37.2 24.0041 37.0862 23.6989 36.8911 23.4741C36.657 23.2044 36.3248 23.0696 35.8945 23.0696ZM48.0331 28.8953C48.4634 28.8953 48.8257 28.8445 49.1199 28.743C49.4142 28.6414 49.653 28.4844 49.8366 28.2718C50.0201 28.0592 50.1514 27.7879 50.2305 27.4579C50.3096 27.1279 50.3491 26.7344 50.3491 26.2775V22.1367H49.1626V26.4488C49.1626 26.9375 49.0819 27.296 48.9206 27.5245C48.7592 27.753 48.4634 27.8672 48.0331 27.8672C47.6028 27.8672 47.3069 27.753 47.1456 27.5245C46.9842 27.296 46.9035 26.9375 46.9035 26.4488V22.1367H45.717V26.2775C45.717 26.7344 45.7566 27.1279 45.8357 27.4579C45.9148 27.7879 46.0461 28.0592 46.2296 28.2718C46.4131 28.4844 46.652 28.6414 46.9463 28.743C47.2405 28.8445 47.6028 28.8953 48.0331 28.8953ZM58.9378 28.781V25.04L58.8618 23.8501H58.9947L59.4598 25.0019L61.2918 28.781H62.6111V22.1367H61.4911V25.8777L61.567 27.0676H61.4341L60.969 25.9158L59.1371 22.1367H57.8177V28.781H58.9378ZM72.3863 28.781C72.7849 28.781 73.1409 28.7192 73.4541 28.5954C73.7673 28.4717 74.0331 28.2749 74.2514 28.0052C74.4698 27.7355 74.6359 27.3912 74.7498 26.9724C74.8637 26.5536 74.9206 26.049 74.9206 25.4589C74.9206 24.8687 74.8637 24.3642 74.7498 23.9453C74.6359 23.5265 74.4698 23.1822 74.2514 22.9125C74.0331 22.6428 73.7673 22.4461 73.4541 22.3223C73.1409 22.1986 72.7849 22.1367 72.3863 22.1367H70.1272V28.781H72.3863ZM72.3863 27.7434H71.3137V23.1743H72.3863C72.7913 23.1743 73.1045 23.2996 73.326 23.5503C73.5475 23.8009 73.6582 24.177 73.6582 24.6783V26.2394C73.6582 26.7408 73.5475 27.1168 73.326 27.3674C73.1045 27.6181 72.7913 27.7434 72.3863 27.7434ZM82.579 28.781L83.0442 27.0486H85.1798L85.645 28.781H86.8125L84.8761 22.1367H83.3764L81.44 28.781H82.579ZM84.8951 26.0871H83.3289L83.832 24.269L84.0408 23.2123H84.1737L84.3825 24.269L84.8951 26.0871ZM95.6479 28.781V23.1743H97.3185V22.1367H92.8003V23.1743H94.4614V28.781H95.6479ZM106.885 28.781V27.8386H106.097V23.0791H106.885V22.1367H104.123V23.0791H104.91V27.8386H104.123V28.781H106.885ZM116.518 28.8953C116.916 28.8953 117.275 28.8302 117.595 28.7001C117.914 28.57 118.187 28.3669 118.411 28.0909C118.636 27.8148 118.81 27.4595 118.933 27.0248C119.057 26.59 119.118 26.0681 119.118 25.4589C119.118 24.8496 119.057 24.3277 118.933 23.893C118.81 23.4583 118.636 23.1029 118.411 22.8268C118.187 22.5508 117.914 22.3477 117.595 22.2176C117.275 22.0875 116.916 22.0225 116.518 22.0225C116.119 22.0225 115.76 22.0875 115.44 22.2176C115.121 22.3477 114.849 22.5508 114.624 22.8268C114.399 23.1029 114.225 23.4583 114.102 23.893C113.978 24.3277 113.917 24.8496 113.917 25.4589C113.917 26.0681 113.978 26.59 114.102 27.0248C114.225 27.4595 114.399 27.8148 114.624 28.0909C114.849 28.3669 115.121 28.57 115.44 28.7001C115.76 28.8302 116.119 28.8953 116.518 28.8953ZM116.518 27.8482C116.087 27.8482 115.755 27.7133 115.521 27.4436C115.287 27.1739 115.17 26.7884 115.17 26.287V24.6307C115.17 24.1294 115.287 23.7438 115.521 23.4741C115.755 23.2044 116.087 23.0696 116.518 23.0696C116.948 23.0696 117.28 23.2044 117.514 23.4741C117.748 23.7438 117.865 24.1294 117.865 24.6307V26.287C117.865 26.7884 117.748 27.1739 117.514 27.4436C117.28 27.7133 116.948 27.8482 116.518 27.8482ZM128.101 28.6668V24.9258L128.025 23.7359H128.158L128.623 24.8877L130.455 28.6668H131.774V22.0225H130.654V25.7635L130.73 26.9534H130.597L130.132 25.8015L128.3 22.0225H126.981V28.6668H128.101Z" fill="url(#paint0_linear_1655_58209)" fill-opacity="0.8"/>
<path d="M30.6401 46.7362L34.9941 49.3641L33.8386 44.4113L37.6854 41.0788L32.6198 40.6491L30.6401 35.978L28.6603 40.6491L23.5947 41.0788L27.4415 44.4113L26.286 49.3641L30.6401 46.7362Z" fill="white"/>
<path d="M53.8666 46.7362L58.2206 49.3641L57.0652 44.4113L60.9119 41.0788L55.8464 40.6491L53.8666 35.978L51.8869 40.6491L46.8213 41.0788L50.668 44.4113L49.5126 49.3641L53.8666 46.7362Z" fill="white"/>
<path d="M77.0932 46.7362L81.4472 49.3641L80.2918 44.4113L84.1385 41.0788L79.0729 40.6491L77.0932 35.978L75.1134 40.6491L70.0479 41.0788L73.8946 44.4113L72.7392 49.3641L77.0932 46.7362Z" fill="white"/>
<path d="M100.32 46.7362L104.674 49.3641L103.518 44.4113L107.365 41.0788L102.299 40.6491L100.32 35.978L98.34 40.6491L93.2744 41.0788L97.1212 44.4113L95.9657 49.3641L100.32 46.7362Z" fill="white"/>
<path d="M123.545 46.7362L127.899 49.3641L126.744 44.4113L130.591 41.0788L125.525 40.6491L123.545 35.978L121.566 40.6491L116.5 41.0788L120.347 44.4113L119.191 49.3641L123.545 46.7362Z" fill="white"/>
<defs>
<linearGradient id="paint0_linear_1655_58209" x1="131.774" y1="25.4416" x2="23.5752" y2="33.1367" gradientUnits="userSpaceOnUse">
<stop stop-color="#111113"/>
<stop offset="1" stop-color="#A7A7AD"/>
</linearGradient>
</defs>
</svg>
