<svg width="154" height="54" viewBox="0 0 154 54" fill="none" xmlns="http://www.w3.org/2000/svg">
<g clip-path="url(#clip0_1395_15850)">
<path d="M52.8682 26.3522C52.8236 25.252 52.9973 24.1539 53.3793 23.1211C53.7612 22.0884 54.3439 21.1415 55.0937 20.3352C55.8435 19.5288 56.7455 18.8789 57.7477 18.4229C58.75 17.9669 59.8326 17.7139 60.9331 17.6785H61.2751C65.5285 17.6785 68.0389 20.1805 68.7812 23.1079L66.1373 23.9919C65.8998 22.9011 65.278 21.9319 64.3854 21.2613C63.4928 20.5907 62.3889 20.2634 61.2751 20.339C58.5228 20.339 55.7623 22.3489 55.7623 26.4022C55.7623 30.4555 58.4561 32.3904 61.3084 32.3904C62.4278 32.421 63.5251 32.0752 64.4248 31.4084C65.3245 30.7416 65.9744 29.7923 66.2708 28.7124L68.8646 29.5464C68.4168 31.1938 67.421 32.6393 66.0412 33.6445C64.6615 34.6497 62.9803 35.1546 61.2751 35.0759C59.0844 35.1161 56.9673 34.2848 55.3893 32.7647C53.8113 31.2445 52.9015 29.16 52.8599 26.9693C52.8516 26.7692 52.8599 26.5607 52.8682 26.3522Z" fill="#375BD2"/>
<path d="M74.01 34.6923H71.2744V17.6284H74.01V24.3005C74.4071 23.8295 74.9066 23.4554 75.4703 23.2068C76.034 22.9582 76.647 22.8416 77.2626 22.866C80.0899 22.866 81.4327 24.8926 81.4327 27.4197V34.6923H78.7972V27.9034C78.8762 27.3247 78.7246 26.7381 78.3751 26.2701C78.0257 25.8021 77.5063 25.4901 76.929 25.4014C76.7654 25.3846 76.6005 25.3846 76.4369 25.4014C75.8043 25.4014 75.1976 25.6527 74.7503 26.1C74.303 26.5473 74.0517 27.154 74.0517 27.7867C74.0475 27.8561 74.0475 27.9257 74.0517 27.9952L74.01 34.6923Z" fill="#375BD2"/>
<path d="M87.5708 28.1204L90.5065 27.6617C91.1737 27.5783 91.3405 27.2364 91.3405 26.8277C91.3405 25.8603 90.69 25.0846 89.1721 25.0846C88.5988 25.0383 88.0304 25.2198 87.5901 25.5898C87.1498 25.9599 86.8732 26.4886 86.8201 27.0612V27.1863L84.3181 26.6276C84.5266 24.6426 86.3281 22.8745 89.147 22.8745C92.6832 22.8745 94.026 24.8761 94.026 27.2114V32.9077C94.0231 33.5249 94.0705 34.1413 94.1678 34.7508H91.6658C91.5756 34.267 91.5392 33.7747 91.5573 33.283C91.1776 33.8674 90.6512 34.3421 90.0307 34.6597C89.4102 34.9772 88.7173 35.1266 88.0211 35.0928C87.0702 35.1713 86.127 34.8694 85.3984 34.2534C84.6698 33.6373 84.2153 32.7575 84.1346 31.8068C84.1346 31.7484 84.1346 31.69 84.1346 31.64C84.0929 29.5299 85.6025 28.3957 87.5708 28.1204ZM91.3572 29.9636V29.4382L88.3631 29.8885C87.9566 29.9014 87.5709 30.0709 87.2864 30.3615C87.002 30.6522 86.8409 31.0415 86.8368 31.4481C86.84 31.6496 86.8833 31.8485 86.9642 32.0331C87.0451 32.2177 87.1619 32.3843 87.3079 32.5233C87.4538 32.6622 87.626 32.7707 87.8143 32.8425C88.0026 32.9142 88.2034 32.9477 88.4048 32.941H88.5299C88.8713 32.9767 89.2163 32.9446 89.5452 32.8464C89.8741 32.7482 90.1803 32.5859 90.4462 32.3688C90.7121 32.1517 90.9325 31.8842 91.0945 31.5816C91.2566 31.2791 91.3572 30.9474 91.3905 30.6058C91.4024 30.3908 91.3884 30.1752 91.3488 29.9636H91.3572Z" fill="#375BD2"/>
<path d="M98.6797 17.3951C98.9148 17.3918 99.1482 17.435 99.3665 17.5221C99.5849 17.6093 99.7838 17.7388 99.952 17.9031C100.12 18.0673 100.254 18.2632 100.346 18.4795C100.439 18.6958 100.487 18.9281 100.489 19.1632C100.489 19.5151 100.385 19.8592 100.19 20.1521C99.9953 20.4451 99.718 20.6738 99.3934 20.8096C99.0687 20.9454 98.7111 20.9822 98.3656 20.9153C98.0201 20.8484 97.7021 20.6809 97.4515 20.4338C97.2009 20.1867 97.029 19.871 96.9573 19.5265C96.8857 19.1819 96.9174 18.8239 97.0487 18.4974C97.18 18.1708 97.4048 17.8904 97.695 17.6913C97.9852 17.4922 98.3278 17.3834 98.6797 17.3784V17.3951ZM97.3453 34.7425V23.2165H100.081V34.6925L97.3453 34.7425Z" fill="#375BD2"/>
<path d="M106.311 34.6926H103.584V23.2166H106.244V24.7429C106.591 24.1568 107.09 23.6749 107.687 23.3477C108.284 23.0204 108.958 22.8599 109.639 22.883C112.441 22.883 113.809 24.9097 113.809 27.4367V34.6926H111.082V27.9038C111.082 26.4943 110.44 25.3517 108.721 25.3517C108.404 25.3539 108.09 25.4186 107.797 25.5422C107.505 25.6658 107.239 25.8458 107.016 26.0719C106.793 26.298 106.617 26.5659 106.497 26.8602C106.378 27.1545 106.317 27.4694 106.32 27.787C106.32 27.8788 106.32 27.9705 106.32 28.0622L106.311 34.6926Z" fill="#375BD2"/>
<path d="M117.111 34.6923V17.6284H119.847V34.6923H117.111Z" fill="#375BD2"/>
<path d="M124.726 17.395C125.078 17.3934 125.423 17.4964 125.716 17.6909C126.01 17.8855 126.239 18.1629 126.374 18.4878C126.51 18.8127 126.545 19.1706 126.477 19.516C126.409 19.8614 126.24 20.1787 125.991 20.4276C125.742 20.6765 125.424 20.8459 125.079 20.9142C124.734 20.9825 124.376 20.9466 124.051 20.8111C123.726 20.6756 123.449 20.4466 123.254 20.1532C123.059 19.8598 122.956 19.5152 122.958 19.1631C122.962 18.6956 123.15 18.2484 123.481 17.9177C123.811 17.5871 124.259 17.3994 124.726 17.395ZM123.383 34.7425V23.2164H126.094V34.6924L123.383 34.7425Z" fill="#375BD2"/>
<path d="M132.366 34.6925H129.631V23.2165H132.291V24.7427C132.639 24.1573 133.137 23.6758 133.734 23.3487C134.331 23.0215 135.005 22.8607 135.686 22.8829C138.488 22.8829 139.856 24.9095 139.856 27.4366V34.6925H137.12V27.9036C137.199 27.3249 137.048 26.7383 136.698 26.2703C136.349 25.8023 135.829 25.4903 135.252 25.4016C135.086 25.3849 134.918 25.3849 134.752 25.4016C134.115 25.4082 133.506 25.6659 133.058 26.1188C132.609 26.5717 132.358 27.1831 132.358 27.8202C132.35 27.9173 132.35 28.015 132.358 28.1121L132.366 34.6925Z" fill="#375BD2"/>
<path d="M149.188 28.0619L154 34.734H150.664L147.328 30.0051L145.919 31.4897V34.6923H143.208V17.6284H145.919V27.8534L150.322 23.2163H153.95L149.188 28.0619Z" fill="#375BD2"/>
<path d="M20.4833 13.0081L32.3096 19.797V33.4414L20.5167 40.2719L8.69873 33.4998V19.8637L20.4833 13.0081ZM20.4833 3L16.1464 5.50203L4.33685 12.3576L0 14.8596V38.5205L4.33685 41.0225L16.1631 47.8114L20.5 50.3134L24.8368 47.8114L36.6214 40.9725L40.9582 38.4705V14.7762L36.6214 12.2742L24.8035 5.50203L20.4666 3H20.4833Z" fill="#375BD2"/>
</g>
<defs>
<clipPath id="clip0_1395_15850">
<rect width="154" height="54" fill="white"/>
</clipPath>
</defs>
</svg>
