<?xml version="1.0" encoding="UTF-8"?><svg id="Layer_2" xmlns="http://www.w3.org/2000/svg" viewBox="0 0 503.87 152.25"><defs><style>.cls-1{fill:#f47d20;}.cls-2{fill:#d9dada;}</style></defs><g id="Layer_1-2"><path class="cls-2" d="m104.83,84.65c-9.86,16.57-27.66,26.83-46.68,26.83-20.62,0-38.61-11.73-47.9-29.01,4.53.3,9.03-.57,13.07-2.45,7.58,11.44,20.37,18.98,34.83,18.98s28.21-7.85,35.85-20.55l10.82,6.21Z"/><path class="cls-2" d="m104.83,26.84l-10.82,6.21c-7.64-12.71-21.3-20.56-35.85-20.56s-27.26,7.53-34.82,18.98c-.05-.03-.08-.05-.13-.06-4.2-1.93-8.64-2.68-12.95-2.39C19.54,11.73,37.53,0,58.15,0c19.01,0,36.82,10.26,46.68,26.84Z"/><path class="cls-2" d="m161.88,112.39c-24.11,0-43.72-20.02-43.72-44.62s19.61-44.62,43.72-44.62,43.72,20.02,43.72,44.62-19.61,44.62-43.72,44.62Zm0-77.98c-17.89,0-32.45,14.96-32.45,33.36s14.56,33.36,32.45,33.36,32.45-14.96,32.45-33.36-14.56-33.36-32.45-33.36Z"/><path class="cls-2" d="m262.81,112.39c-24.11,0-43.72-20.02-43.72-44.62s19.61-44.62,43.72-44.62,43.72,20.02,43.72,44.62-19.61,44.62-43.72,44.62Zm0-77.98c-17.89,0-32.45,14.96-32.45,33.36s14.56,33.36,32.45,33.36,32.45-14.96,32.45-33.36-14.56-33.36-32.45-33.36Z"/><path class="cls-2" d="m393.02,112.39c-19.82,0-35.95-16.45-35.95-36.66V1.13h11.27v74.59c0,14.01,11.07,25.4,24.68,25.4,5.28,0,10.31-1.69,14.55-4.88l6.78,9c-6.21,4.68-13.58,7.15-21.33,7.15Z"/><path class="cls-2" d="m262.81,152.25c-11.35,0-22.11-4.42-30.28-12.44l7.89-8.04c6.05,5.94,14,9.22,22.38,9.22,17.89,0,32.45-14.96,32.45-33.36v-40.72h11.27v40.72c0,24.61-19.61,44.62-43.72,44.62Z"/><rect class="cls-2" x="362.71" y="26.24" width="35.68" height="11.27"/><path class="cls-2" d="m335.74,27.2v81.63h-11.26V27.2h.01c3.77,1.08,7.65,1.03,11.25,0Z"/><path class="cls-2" d="m460.16,112.39c-24.11,0-43.72-20.02-43.72-44.62s19.61-44.62,43.72-44.62,43.72,20.02,43.72,44.62-19.61,44.62-43.72,44.62Zm0-77.98c-17.89,0-32.45,14.96-32.45,33.36s14.56,33.36,32.45,33.36,32.45-14.96,32.45-33.36-14.56-33.36-32.45-33.36Z"/><circle class="cls-1" cx="12.03" cy="55.74" r="12.03"/><circle class="cls-1" cx="330.11" cy="7.55" r="6.43"/></g></svg>