<svg width="154" height="54" viewBox="0 0 154 54" fill="none" xmlns="http://www.w3.org/2000/svg">
<path d="M83.0051 19.3541V24.431H83.051C83.8978 23.3285 85.1068 22.777 86.6781 22.777C87.3792 22.777 88.0427 22.8905 88.6671 23.1169C89.292 23.3433 89.8474 23.6848 90.3324 24.1417C90.8163 24.5981 91.1958 25.1685 91.4694 25.8534C91.744 26.5378 91.8802 27.3285 91.8802 28.225C91.8802 29.2354 91.6933 30.1743 91.3175 31.0417C90.9416 31.9096 90.3569 32.6042 89.5639 33.127C88.7705 33.6494 87.7859 33.9116 86.6098 33.9116C84.9116 33.9116 83.7025 33.3754 82.9816 32.3041H82.9362V33.634H79.7111V19.3541H83.0051ZM70.6307 22.4789C76.8977 22.4789 76.3615 29.1489 76.3615 29.1489H67.7824C68.1296 30.4762 69.2828 31.3487 70.8718 31.3487C72.7861 31.3487 73.8177 30.2028 73.8177 30.2028L75.6391 32.0469C74.7015 32.9694 73.4423 33.8123 70.8442 33.8123C66.8266 33.8123 64.6842 31.1775 64.6842 28.3848C64.6842 25.5921 66.2915 22.4789 70.6307 22.4789ZM148.666 22.474C151.363 22.474 153.077 23.4927 153.077 23.4927L151.969 25.8463C148.381 24.0023 146.756 25.302 146.756 25.9516C146.756 26.6018 147.398 26.6544 149.898 27.1113C152.398 27.5683 153.559 28.6038 153.559 30.2726C153.559 31.9413 152.112 33.7859 148.577 33.7859C145.041 33.7859 143.435 32.6615 143.435 32.6615L144.506 30.3252C147.274 32.0645 150.416 31.5018 150.416 30.4663C150.416 29.6889 149.371 29.5241 148.247 29.394L147.762 29.3386C147.547 29.3135 147.335 29.2866 147.131 29.2539C145.702 29.0255 143.578 28.2705 143.578 26.0922C143.578 23.9143 145.971 22.474 148.666 22.474ZM132.881 18.6101V27.2346L137.567 22.7726H141.398L136.753 27.1948L141.853 33.786H138.05L134.562 29.2801L132.881 30.8804V33.786H129.747V18.6101H132.881ZM121.649 22.4042C123.872 22.4042 125.818 23.5006 126.894 25.1438L124.245 26.6873C123.748 25.753 122.772 25.1177 121.649 25.1177C120.022 25.1177 118.703 26.4507 118.703 28.0949C118.703 29.7387 120.022 31.0722 121.649 31.0722C122.72 31.0722 123.654 30.4931 124.171 29.6293L126.831 31.1371C125.744 32.7287 123.831 33.7861 121.649 33.7861C118.262 33.7861 115.516 31.2378 115.516 28.0949C115.516 24.9516 118.262 22.4042 121.649 22.4042ZM107.086 22.4037C110.472 22.4037 113.219 24.9521 113.219 28.0944C113.219 31.2378 110.472 33.7856 107.086 33.7856C103.697 33.7856 100.953 31.2378 100.953 28.0944C100.953 24.9521 103.697 22.4037 107.086 22.4037ZM51.3973 22.7201V33.6809H47.9957V22.7201H51.3973ZM44.9413 19.4002V22.1403H37.3347V25.7763H44.0569V28.4903H37.3347V33.6807H33.9326V19.4002H44.9413ZM58.6568 24.0898C58.6568 24.0898 59.8622 22.2191 62.3528 22.5094V25.5653C62.3528 25.5653 59.6476 24.8804 58.6568 27.6471V33.6802H55.416V22.72H58.5143L58.6568 24.011V24.0898ZM97.7101 18.5571V33.6011H94.2819V18.5571H97.7101ZM85.6873 25.1854C83.8075 25.1854 82.8673 26.319 82.8673 28.5873C82.8673 29.447 83.1095 30.1682 83.5934 30.7509C84.0779 31.333 84.8077 31.6244 85.7844 31.6244C86.4354 31.6244 86.9637 31.4562 87.3698 31.1199C87.7755 30.7831 88.0631 30.3716 88.2333 29.8845C88.404 29.398 88.4891 28.9119 88.4891 28.4268C88.4891 27.4946 88.2662 26.7223 87.8204 26.1074C87.3745 25.4926 86.663 25.1854 85.6873 25.1854ZM107.086 25.1177C105.458 25.1177 104.139 26.4502 104.139 28.0944C104.139 29.7392 105.458 31.0722 107.086 31.0722C108.713 31.0722 110.031 29.7392 110.031 28.0944C110.031 26.4502 108.713 25.1177 107.086 25.1177ZM70.6839 24.8673C69.0265 24.8673 68.1051 25.8798 67.7939 27.199H73.3489C73.3217 26.856 72.7731 24.8673 70.6839 24.8673ZM49.6966 17.5557C50.8002 17.5557 51.696 18.3699 51.696 19.3737C51.696 20.3775 50.8002 21.1917 49.6966 21.1917C48.5925 21.1917 47.6967 20.3775 47.6967 19.3737C47.6967 18.3699 48.5925 17.5557 49.6966 17.5557Z" fill="#E9EEF8"/>
<path d="M22.5638 15C23.0762 15 23.4915 15.4119 23.4915 15.92V37.08C23.4915 37.5881 23.0762 38 22.5638 38H0.927711C0.41535 38 0 37.5881 0 37.08V15.92C0 15.4119 0.41535 15 0.927711 15H22.5638ZM11.7457 21.3889L5.22029 31.6111H18.2711L11.7457 21.3889Z" fill="#E9EEF8"/>
</svg>
