<svg width="154" height="54" viewBox="0 0 154 54" fill="none" xmlns="http://www.w3.org/2000/svg">
  <path d="M1.90503 45.0161V41.0132H5.1623V39.6036H1.90503V37.1833H5.66751V35.7338H0.243164V45.0161H1.90503ZM19.461 35.5742C20.0194 35.5742 20.5224 35.6651 20.97 35.8468C21.4176 36.0286 21.7987 36.3123 22.1134 36.6979C22.428 37.0836 22.6718 37.5801 22.8446 38.1873C23.0174 38.7946 23.1039 39.5238 23.1039 40.3749C23.1039 41.226 23.0174 41.9552 22.8446 42.5625C22.6718 43.1698 22.428 43.6663 22.1134 44.0519C21.7987 44.4376 21.4176 44.7213 20.97 44.903C20.5224 45.0848 20.0194 45.1756 19.461 45.1756C18.9026 45.1756 18.3997 45.0848 17.9521 44.903C17.5045 44.7213 17.1233 44.4376 16.8087 44.0519C16.494 43.6663 16.2503 43.1698 16.0775 42.5625C15.9046 41.9552 15.8182 41.226 15.8182 40.3749C15.8182 39.5238 15.9046 38.7946 16.0775 38.1873C16.2503 37.5801 16.494 37.0836 16.8087 36.6979C17.1233 36.3123 17.5045 36.0286 17.9521 35.8468C18.3997 35.6651 18.9026 35.5742 19.461 35.5742ZM19.461 37.037C18.8583 37.037 18.393 37.2254 18.0651 37.6022C17.7371 37.979 17.5731 38.5176 17.5731 39.218V41.5319L17.5868 41.8686C17.6324 42.4073 17.7918 42.8336 18.0651 43.1476C18.393 43.5244 18.8583 43.7128 19.461 43.7128C20.0637 43.7128 20.5291 43.5244 20.857 43.1476C21.1849 42.7709 21.3489 42.2323 21.3489 41.5319V39.218L21.3353 38.8813C21.2897 38.3426 21.1303 37.9162 20.857 37.6022C20.5291 37.2254 20.0637 37.037 19.461 37.037ZM36.4631 45.1756C37.0658 45.1756 37.5732 45.1047 37.9853 44.9629C38.3975 44.821 38.7321 44.6016 38.9891 44.3046C39.2462 44.0076 39.4301 43.6286 39.5409 43.1676C39.6517 42.7066 39.707 42.1569 39.707 41.5186V35.7338H38.0452V41.758C38.0452 42.4406 37.9322 42.9415 37.7062 43.2607C37.4801 43.5798 37.0658 43.7394 36.4631 43.7394C35.8604 43.7394 35.446 43.5798 35.22 43.2607C34.994 42.9415 34.881 42.4406 34.881 41.758V35.7338H33.2191V41.5186C33.2191 42.1569 33.2745 42.7066 33.3853 43.1676C33.4961 43.6286 33.68 44.0076 33.937 44.3046C34.1941 44.6016 34.5287 44.821 34.9408 44.9629C35.3529 45.1047 35.8604 45.1756 36.4631 45.1756ZM51.7368 45.0161V39.7898L51.6304 38.1275H51.8165L52.468 39.7366L55.0339 45.0161H56.8819V35.7338H55.3131V40.9601L55.4195 42.6224H55.2333L54.5819 41.0132L52.016 35.7338H50.168V45.0161H51.7368ZM70.5735 45.0161C71.1319 45.0161 71.6305 44.9296 72.0692 44.7567C72.5079 44.5839 72.8802 44.309 73.186 43.9322C73.4918 43.5555 73.7244 43.0745 73.884 42.4894C74.0435 41.9042 74.1233 41.1994 74.1233 40.3749C74.1233 39.5504 74.0435 38.8456 73.884 38.2605C73.7244 37.6754 73.4918 37.1944 73.186 36.8176C72.8802 36.4408 72.5079 36.166 72.0692 35.9931C71.6305 35.8202 71.1319 35.7338 70.5735 35.7338H67.4093V45.0161H70.5735ZM70.5735 43.5665H69.0712V37.1833H70.5735C71.1408 37.1833 71.5795 37.3584 71.8897 37.7086C72.1999 38.0588 72.355 38.5841 72.355 39.2845V41.4654C72.355 42.1658 72.1999 42.6911 71.8897 43.0412C71.5795 43.3914 71.1408 43.5665 70.5735 43.5665ZM84.8501 45.0161L85.5015 42.5958H88.4929L89.1444 45.0161H90.7796L88.0675 35.7338H85.9669L83.2547 45.0161H84.8501ZM88.0941 41.2526H85.9004L86.605 38.7126L86.8975 37.2365H87.0836L87.3761 38.7126L88.0941 41.2526ZM103.155 45.0161V37.1833H105.495V35.7338H99.1665V37.1833H101.493V45.0161H103.155ZM118.894 45.0161V43.6995H117.791V37.0503H118.894V35.7338H115.025V37.0503H116.129V43.6995H115.025V45.0161H118.894ZM132.386 45.1756C132.945 45.1756 133.448 45.0848 133.895 44.903C134.343 44.7213 134.724 44.4376 135.039 44.0519C135.353 43.6663 135.597 43.1698 135.77 42.5625C135.943 41.9552 136.029 41.226 136.029 40.3749C136.029 39.5238 135.943 38.7946 135.77 38.1873C135.597 37.5801 135.353 37.0836 135.039 36.6979C134.724 36.3123 134.343 36.0286 133.895 35.8468C133.448 35.6651 132.945 35.5742 132.386 35.5742C131.828 35.5742 131.325 35.6651 130.877 35.8468C130.43 36.0286 130.049 36.3123 129.734 36.6979C129.419 37.0836 129.175 37.5801 129.003 38.1873C128.83 38.7946 128.743 39.5238 128.743 40.3749C128.743 41.226 128.83 41.9552 129.003 42.5625C129.175 43.1698 129.419 43.6663 129.734 44.0519C130.049 44.4376 130.43 44.7213 130.877 44.903C131.325 45.0848 131.828 45.1756 132.386 45.1756ZM132.386 43.7128C131.784 43.7128 131.318 43.5244 130.99 43.1476C130.662 42.7709 130.498 42.2323 130.498 41.5319V39.218C130.498 38.5176 130.662 37.979 130.99 37.6022C131.318 37.2254 131.784 37.037 132.386 37.037C132.989 37.037 133.454 37.2254 133.782 37.6022C134.11 37.979 134.274 38.5176 134.274 39.218V41.5319C134.274 42.2323 134.11 42.7709 133.782 43.1476C133.454 43.5244 132.989 43.7128 132.386 43.7128ZM148.611 44.8565V39.6302L148.504 37.9679H148.69L149.342 39.577L151.908 44.8565H153.756V35.5742H152.187V40.8005L152.293 42.4628H152.107L151.456 40.8537L148.89 35.5742H147.042V44.8565H148.611Z" fill="#88888D"/>
  <path d="M1.90503 45.0161V41.0132H5.1623V39.6036H1.90503V37.1833H5.66751V35.7338H0.243164V45.0161H1.90503ZM19.461 35.5742C20.0194 35.5742 20.5224 35.6651 20.97 35.8468C21.4176 36.0286 21.7987 36.3123 22.1134 36.6979C22.428 37.0836 22.6718 37.5801 22.8446 38.1873C23.0174 38.7946 23.1039 39.5238 23.1039 40.3749C23.1039 41.226 23.0174 41.9552 22.8446 42.5625C22.6718 43.1698 22.428 43.6663 22.1134 44.0519C21.7987 44.4376 21.4176 44.7213 20.97 44.903C20.5224 45.0848 20.0194 45.1756 19.461 45.1756C18.9026 45.1756 18.3997 45.0848 17.9521 44.903C17.5045 44.7213 17.1233 44.4376 16.8087 44.0519C16.494 43.6663 16.2503 43.1698 16.0775 42.5625C15.9046 41.9552 15.8182 41.226 15.8182 40.3749C15.8182 39.5238 15.9046 38.7946 16.0775 38.1873C16.2503 37.5801 16.494 37.0836 16.8087 36.6979C17.1233 36.3123 17.5045 36.0286 17.9521 35.8468C18.3997 35.6651 18.9026 35.5742 19.461 35.5742ZM19.461 37.037C18.8583 37.037 18.393 37.2254 18.0651 37.6022C17.7371 37.979 17.5731 38.5176 17.5731 39.218V41.5319L17.5868 41.8686C17.6324 42.4073 17.7918 42.8336 18.0651 43.1476C18.393 43.5244 18.8583 43.7128 19.461 43.7128C20.0637 43.7128 20.5291 43.5244 20.857 43.1476C21.1849 42.7709 21.3489 42.2323 21.3489 41.5319V39.218L21.3353 38.8813C21.2897 38.3426 21.1303 37.9162 20.857 37.6022C20.5291 37.2254 20.0637 37.037 19.461 37.037ZM36.4631 45.1756C37.0658 45.1756 37.5732 45.1047 37.9853 44.9629C38.3975 44.821 38.7321 44.6016 38.9891 44.3046C39.2462 44.0076 39.4301 43.6286 39.5409 43.1676C39.6517 42.7066 39.707 42.1569 39.707 41.5186V35.7338H38.0452V41.758C38.0452 42.4406 37.9322 42.9415 37.7062 43.2607C37.4801 43.5798 37.0658 43.7394 36.4631 43.7394C35.8604 43.7394 35.446 43.5798 35.22 43.2607C34.994 42.9415 34.881 42.4406 34.881 41.758V35.7338H33.2191V41.5186C33.2191 42.1569 33.2745 42.7066 33.3853 43.1676C33.4961 43.6286 33.68 44.0076 33.937 44.3046C34.1941 44.6016 34.5287 44.821 34.9408 44.9629C35.3529 45.1047 35.8604 45.1756 36.4631 45.1756ZM51.7368 45.0161V39.7898L51.6304 38.1275H51.8165L52.468 39.7366L55.0339 45.0161H56.8819V35.7338H55.3131V40.9601L55.4195 42.6224H55.2333L54.5819 41.0132L52.016 35.7338H50.168V45.0161H51.7368ZM70.5735 45.0161C71.1319 45.0161 71.6305 44.9296 72.0692 44.7567C72.5079 44.5839 72.8802 44.309 73.186 43.9322C73.4918 43.5555 73.7244 43.0745 73.884 42.4894C74.0435 41.9042 74.1233 41.1994 74.1233 40.3749C74.1233 39.5504 74.0435 38.8456 73.884 38.2605C73.7244 37.6754 73.4918 37.1944 73.186 36.8176C72.8802 36.4408 72.5079 36.166 72.0692 35.9931C71.6305 35.8202 71.1319 35.7338 70.5735 35.7338H67.4093V45.0161H70.5735ZM70.5735 43.5665H69.0712V37.1833H70.5735C71.1408 37.1833 71.5795 37.3584 71.8897 37.7086C72.1999 38.0588 72.355 38.5841 72.355 39.2845V41.4654C72.355 42.1658 72.1999 42.6911 71.8897 43.0412C71.5795 43.3914 71.1408 43.5665 70.5735 43.5665ZM84.8501 45.0161L85.5015 42.5958H88.4929L89.1444 45.0161H90.7796L88.0675 35.7338H85.9669L83.2547 45.0161H84.8501ZM88.0941 41.2526H85.9004L86.605 38.7126L86.8975 37.2365H87.0836L87.3761 38.7126L88.0941 41.2526ZM103.155 45.0161V37.1833H105.495V35.7338H99.1665V37.1833H101.493V45.0161H103.155ZM118.894 45.0161V43.6995H117.791V37.0503H118.894V35.7338H115.025V37.0503H116.129V43.6995H115.025V45.0161H118.894ZM132.386 45.1756C132.945 45.1756 133.448 45.0848 133.895 44.903C134.343 44.7213 134.724 44.4376 135.039 44.0519C135.353 43.6663 135.597 43.1698 135.77 42.5625C135.943 41.9552 136.029 41.226 136.029 40.3749C136.029 39.5238 135.943 38.7946 135.77 38.1873C135.597 37.5801 135.353 37.0836 135.039 36.6979C134.724 36.3123 134.343 36.0286 133.895 35.8468C133.448 35.6651 132.945 35.5742 132.386 35.5742C131.828 35.5742 131.325 35.6651 130.877 35.8468C130.43 36.0286 130.049 36.3123 129.734 36.6979C129.419 37.0836 129.175 37.5801 129.003 38.1873C128.83 38.7946 128.743 39.5238 128.743 40.3749C128.743 41.226 128.83 41.9552 129.003 42.5625C129.175 43.1698 129.419 43.6663 129.734 44.0519C130.049 44.4376 130.43 44.7213 130.877 44.903C131.325 45.0848 131.828 45.1756 132.386 45.1756ZM132.386 43.7128C131.784 43.7128 131.318 43.5244 130.99 43.1476C130.662 42.7709 130.498 42.2323 130.498 41.5319V39.218C130.498 38.5176 130.662 37.979 130.99 37.6022C131.318 37.2254 131.784 37.037 132.386 37.037C132.989 37.037 133.454 37.2254 133.782 37.6022C134.11 37.979 134.274 38.5176 134.274 39.218V41.5319C134.274 42.2323 134.11 42.7709 133.782 43.1476C133.454 43.5244 132.989 43.7128 132.386 43.7128ZM148.611 44.8565V39.6302L148.504 37.9679H148.69L149.342 39.577L151.908 44.8565H153.756V35.5742H152.187V40.8005L152.293 42.4628H152.107L151.456 40.8537L148.89 35.5742H147.042V44.8565H148.611Z" fill="url(#paint0_linear_1279_31461)" fill-opacity="0.8"/>
  <path fill-rule="evenodd" clip-rule="evenodd" d="M72.8525 9.00009V13.6937H58.963V20.9841H72.8354V25.623H53.7881V9.00009H72.8525ZM127.19 9.00009V13.639H114.401V14.9648H127.19V19.6035H114.401V20.9841H127.19V25.623H109.226V9.00009H127.19ZM141.298 9.00005L148.774 16.4313V9.00005H154V25.6229L148.832 25.6224L141.298 18.0797V25.6224H136.072V9.00005H141.298ZM44.8522 9.00007V25.6229H39.6932V21.8834H32.0015V25.6229H26.8423V9.00007H44.8522ZM5.17495 9V14.7861H12.7316V9H17.9177V25.6229H12.7316V19.7178H5.17495V25.6229H0V9H5.17495ZM86.9551 9V14.726H94.9773V9H100.144V14.726H100.117L94.9773 19.6604H86.9551V25.6229H81.777V9H86.9551ZM100.155 19.6605V25.6229H94.9772V19.6605H100.155ZM39.6932 13.6248H32.0015V17.2588H39.6932V13.6248Z" fill="#2BE2B3"/>
  <defs>
    <linearGradient id="paint0_linear_1279_31461" x1="153.756" y1="40.3509" x2="2.20998" y2="51.1569" gradientUnits="userSpaceOnUse">
      <stop stop-color="#111113"/>
      <stop offset="1" stop-color="#A7A7AD"/>
    </linearGradient>
  </defs>
</svg>
