<?xml version="1.0" encoding="UTF-8"?><svg id="Layer_1" xmlns="http://www.w3.org/2000/svg" viewBox="0 0 772.93 135.36"><defs><style>.cls-1{fill:#6cbe53;}</style></defs><g><path class="cls-1" d="m209.99,18.71h5.54v84.75h-5.54v-39.61h-51.04v39.61h-5.54V18.71h5.54v40.1h51.04V18.71Z"/><path class="cls-1" d="m280.1,46.01h5.9l-36.29,85.24h-5.78l11.56-27.67-24.23-57.56h5.9l21.28,50.68,21.65-50.68Z"/><path class="cls-1" d="m359.06,74.8c0,16.97-13.28,30.13-29.52,30.13-10.82,0-20.29-5.9-24.97-14.51v40.84h-5.41V46.01h5.41v13.04c4.67-8.61,14.27-14.51,24.97-14.51,16.24,0,29.52,13.28,29.52,30.26Zm-5.41,0c0-13.78-10.95-24.97-24.35-24.97s-24.72,10.33-24.72,24.48c0,15.01,11.56,25.34,24.72,25.34s24.35-11.07,24.35-24.85Z"/><path class="cls-1" d="m428.8,76.89h-51.66c1.11,13.9,10.58,22.75,23.62,22.75,8.61,0,16.11-4.3,20.29-11.19l4.8,2.34c-5.17,8.86-14.64,14.14-25.21,14.14-16.11,0-29.03-12.18-29.03-30.38s12.91-30.01,29.03-30.01,28.17,11.93,28.17,30.01v2.34Zm-5.41-4.67c-.86-13.65-10.09-22.39-22.76-22.39s-22.26,8.36-23.49,22.39h46.25Z"/><path class="cls-1" d="m478.49,45.89l-1.35,5.17c-2.71-.98-5.29-1.23-7.26-1.23-15.5,0-19.19,18.08-19.43,31.37v22.26h-5.41v-57.44h5.41v15.74c2.46-9.72,9.22-17.22,19.56-17.22,2.58,0,5.66.37,8.49,1.35Z"/><path class="cls-1" d="m486.36,61.27c0-24.11,18.45-44.03,41.94-44.03,11.19,0,21.28,4.43,28.66,11.56l-3.81,3.69c-6.4-6.03-15.13-9.96-24.85-9.96-20.42,0-36.41,17.71-36.41,38.75s15.99,38.38,36.41,38.38c9.72,0,18.33-3.81,24.72-9.84l3.81,3.69c-7.26,7.13-17.34,11.44-28.54,11.44-23.49,0-41.94-19.68-41.94-43.67Z"/><path class="cls-1" d="m610.47,46.01h5.9l-36.29,85.24h-5.78l11.56-27.67-24.23-57.56h5.9l21.28,50.68,21.65-50.68Z"/><path class="cls-1" d="m623.76,74.55c0-18.08,13.65-30.01,30.13-30.01,7.38,0,14.27,2.71,19.43,6.89l-3.32,3.94c-4.18-3.32-9.96-5.54-16.11-5.54-13.65,0-24.72,9.84-24.72,24.72s11.07,25.09,24.72,25.09c6.15,0,11.81-2.09,16.11-5.53l3.44,3.94c-5.29,4.3-12.05,6.89-19.56,6.89-16.48,0-30.13-12.18-30.13-30.38Z"/><path class="cls-1" d="m688.7,103.46V14.77h5.41v88.68h-5.41Z"/><path class="cls-1" d="m767.91,76.89h-51.66c1.11,13.9,10.58,22.75,23.62,22.75,8.61,0,16.11-4.3,20.29-11.19l4.8,2.34c-5.17,8.86-14.64,14.14-25.21,14.14-16.11,0-29.03-12.18-29.03-30.38s12.91-30.01,29.03-30.01,28.17,11.93,28.17,30.01v2.34Zm-5.41-4.67c-.86-13.65-10.09-22.39-22.76-22.39s-22.26,8.36-23.49,22.39h46.25Z"/></g><g><path class="cls-1" d="m66.92,47.05l-.02-9.25v-3.82s-.09,0-.09,0c-19.93,0-36.15,16.22-36.15,36.15s16.22,36.15,36.15,36.15c9.64,0,18.71-3.76,25.55-10.6,5.87-5.87,9.56-13.62,10.41-21.83h9.26c-.87,10.7-5.53,20.77-13.13,28.37-8.57,8.57-19.97,13.29-32.09,13.29s-23.52-4.72-32.09-13.29-13.29-19.97-13.29-32.09,4.72-23.52,13.29-32.09,19.97-13.29,32.09-13.29h.1v-3.82h-.1c-13.14,0-25.5,5.12-34.79,14.41s-14.41,21.65-14.41,34.79c0,13.14,5.12,25.5,14.41,34.79s21.65,14.41,34.79,14.41h0c13.14,0,25.5-5.12,34.79-14.41s14.41-21.65,14.41-34.79v-.1h-3.82s-12.98-.01-12.98-.01h-.1v1c-.48,17.33-14.97,31.43-32.3,31.43s-32.32-14.5-32.32-32.32c0-16.44,12.28-30.22,28.59-32.1l.02,9.32c-11.31,1.84-19.63,11.84-19.37,23.31.14,6.16,2.68,11.89,7.14,16.16,4.33,4.14,9.97,6.4,15.93,6.4.18,0,.36,0,.54,0,5.96-.14,11.56-2.54,15.79-6.76,4.51-4.51,6.91-10.49,6.77-16.85-.07-3.06-.73-6.02-1.97-8.81,3.04-3.31,2.93-8.36-.24-11.54s-8.23-3.28-11.54-.24c-2.87-1.27-6.06-1.95-9.23-1.96Zm17.78,15.92c.86,2.14,1.32,4.39,1.37,6.71.24,10.62-8.2,19.46-18.82,19.7-.15,0-.3,0-.45,0-10.42,0-19.01-8.35-19.25-18.82-.12-5.14,1.78-10.02,5.33-13.74s8.35-5.84,13.48-5.96c.15,0,.29,0,.44,0,2.45,0,4.86.46,7.16,1.38-1.14,3.06-.39,6.51,1.91,8.81,2.31,2.31,5.76,3.05,8.82,1.91Zm-7.44-7.81c0-1.21.47-2.35,1.32-3.2s2.04-1.32,3.2-1.32,2.32.44,3.2,1.32c1.76,1.76,1.76,4.63,0,6.4s-4.63,1.76-6.4,0c-.85-.85-1.32-1.99-1.32-3.2Z"/><path class="cls-1" d="m132.58,58.69c-3.01-3.01-7.91-3.01-10.92,0-1.46,1.46-2.26,3.4-2.26,5.46,0,2.07.8,4.01,2.26,5.46.98.98,2.22,1.68,3.58,2.02-.38,15.03-6.45,29.17-17.1,39.81s-25.71,17.12-41.32,17.12-30.29-6.08-41.32-17.12c-11.04-11.04-17.12-25.71-17.12-41.32s6.08-30.29,17.12-41.32c10.76-10.76,25.06-16.83,40.26-17.1.27,1.59,1.01,3.03,2.14,4.16,1.46,1.46,3.4,2.26,5.46,2.26s4-.8,5.46-2.26c3.01-3.01,3.01-7.91,0-10.92s-7.91-3.01-10.92,0c-.83.83-1.45,1.82-1.83,2.94-16.35.19-31.71,6.66-43.28,18.23S4.55,53.49,4.55,70.12s6.48,32.27,18.24,44.03,27.4,18.24,44.03,18.24,32.27-6.48,44.03-18.24c11.37-11.37,17.84-26.48,18.22-42.53,1.34-.35,2.56-1.04,3.52-2,3.01-3.01,3.01-7.91,0-10.92Zm-2.7,8.22c-.74.74-1.72,1.14-2.76,1.14s-2.02-.41-2.76-1.14c-1.52-1.52-1.52-4,0-5.52.76-.76,1.76-1.14,2.76-1.14s2,.38,2.76,1.14c1.52,1.52,1.52,4,0,5.52ZM69.46,10.39c0-1.04.41-2.02,1.14-2.76.74-.74,1.71-1.14,2.76-1.14s2.02.41,2.76,1.14,1.14,1.71,1.14,2.76-.41,2.02-1.14,2.76-1.72,1.14-2.76,1.14-2.02-.41-2.76-1.14c-.74-.74-1.14-1.71-1.14-2.76Z"/></g></svg>