<svg id="svg" version="1.1" xmlns="http://www.w3.org/2000/svg" xmlns:xlink="http://www.w3.org/1999/xlink" width="400" height="101.36" viewBox="0, 0, 400,101.36"><g id="svgg"><path id="path0" d="M196.667 0.267 C 192.386 1.409,189.350 5.384,189.336 9.864 C 189.319 15.516,184.831 20.050,178.878 20.430 C 172.922 20.810,169.464 24.036,168.975 29.665 C 168.374 36.584,164.797 40.380,158.439 40.845 C 152.336 41.292,148.506 45.034,148.472 50.583 C 148.438 56.221,152.278 60.037,158.439 60.488 C 164.797 60.953,168.374 64.749,168.975 71.668 C 169.464 77.298,172.922 80.523,178.878 80.903 C 184.831 81.283,189.319 85.817,189.336 91.469 C 189.362 99.939,199.427 104.523,205.644 98.897 C 207.890 96.865,208.685 94.982,208.981 90.995 C 209.411 85.214,213.324 81.495,219.667 80.841 C 225.537 80.236,228.680 77.038,229.340 71.000 C 230.042 64.568,233.663 60.958,239.880 60.493 C 246.095 60.027,249.734 56.398,249.734 50.667 C 249.734 44.935,246.095 41.306,239.880 40.840 C 234.438 40.433,230.552 37.182,229.602 32.243 C 229.404 31.211,229.366 31.138,229.258 31.583 C 228.609 34.272,228.014 35.440,226.514 36.969 C 224.919 38.596,222.446 39.783,220.507 39.855 C 220.054 39.872,220.130 39.906,220.833 40.000 C 228.324 41.003,232.528 48.890,229.137 55.583 C 227.638 58.543,224.308 60.894,221.094 61.259 C 213.638 62.109,210.647 64.804,209.916 71.333 C 209.200 77.730,205.012 81.829,199.191 81.832 C 193.122 81.836,188.840 77.546,188.421 71.039 C 188.048 65.271,184.531 61.892,178.333 61.349 C 172.121 60.805,167.943 56.510,167.943 50.667 C 167.943 44.823,172.121 40.529,178.333 39.984 C 184.531 39.441,188.048 36.063,188.421 30.294 C 188.662 26.560,189.739 24.201,192.179 22.061 C 198.340 16.660,208.135 20.166,209.686 28.326 L 209.890 29.403 210.095 28.410 C 210.908 24.471,213.491 21.793,217.500 20.734 C 218.302 20.522,218.714 20.354,218.449 20.346 C 213.793 20.217,209.367 15.539,208.981 10.338 C 208.749 7.211,208.443 6.126,207.281 4.310 C 205.146 0.971,200.564 -0.774,196.667 0.267 M309.527 37.505 C 300.366 39.905,296.657 51.409,302.570 59.083 C 306.632 64.355,313.927 65.767,319.042 62.271 L 319.667 61.843 319.667 62.838 L 319.667 63.833 323.333 63.833 L 327.000 63.833 327.000 50.750 L 327.000 37.667 323.333 37.667 L 319.667 37.667 319.667 38.583 C 319.667 39.589,319.604 39.654,319.094 39.180 C 317.257 37.475,312.694 36.676,309.527 37.505 M348.247 37.421 C 337.337 39.818,333.946 53.682,342.468 61.047 C 348.918 66.621,359.717 64.346,363.098 56.701 C 363.635 55.486,363.683 55.564,362.125 55.107 C 356.823 53.550,356.684 53.527,356.669 54.200 C 356.650 55.096,353.877 57.162,352.237 57.503 C 344.662 59.075,341.483 47.619,348.577 44.310 C 351.511 42.941,355.866 44.549,356.748 47.326 C 356.887 47.764,356.973 47.758,358.937 47.190 C 359.842 46.927,361.209 46.540,361.974 46.329 C 363.668 45.861,363.686 45.820,362.889 44.302 C 360.108 39.007,354.029 36.150,348.247 37.421 M384.333 37.275 C 372.501 39.584,368.964 54.246,378.475 61.564 C 384.342 66.078,394.444 64.413,398.460 58.269 C 399.119 57.261,399.133 57.282,397.460 56.844 C 396.703 56.645,395.324 56.258,394.395 55.982 L 392.708 55.482 391.771 56.138 C 388.876 58.166,384.546 58.183,382.013 56.177 C 381.500 55.770,380.333 53.982,380.333 53.602 C 380.333 53.546,384.679 53.500,389.990 53.500 C 397.534 53.500,399.676 53.454,399.779 53.292 C 400.339 52.411,399.932 48.016,399.082 45.766 C 396.933 40.077,390.108 36.148,384.333 37.275 M389.287 44.238 C 390.443 44.762,391.739 46.002,392.318 47.137 L 392.673 47.833 386.503 47.833 C 383.110 47.833,380.333 47.792,380.333 47.742 C 380.333 47.514,380.925 46.521,381.437 45.889 C 383.144 43.781,386.654 43.043,389.287 44.238 M316.117 44.403 C 319.483 45.930,321.115 50.240,319.565 53.510 C 316.778 59.392,308.215 58.548,306.741 52.246 C 305.451 46.735,311.009 42.085,316.117 44.403 " stroke="none" fill="#2cdc9b" fill-rule="evenodd"></path><path id="path1" d="M237.667 0.264 C 233.213 1.439,230.732 4.734,230.338 10.000 C 229.893 15.954,226.147 19.739,220.010 20.435 C 213.645 21.157,210.697 24.026,209.922 30.250 C 209.103 36.832,205.592 40.395,199.483 40.842 C 191.374 41.436,187.021 48.531,190.594 55.331 C 192.243 58.471,195.182 60.176,199.483 60.491 C 205.006 60.896,208.663 64.131,209.759 69.583 C 209.914 70.352,209.965 70.455,209.980 70.029 C 210.113 66.313,213.953 62.290,218.026 61.599 L 219.250 61.392 218.312 61.280 C 207.769 60.026,205.470 45.517,215.094 40.974 C 216.151 40.476,217.370 40.194,220.378 39.755 C 225.752 38.970,229.273 35.145,229.328 30.035 C 229.387 24.397,234.387 19.500,240.083 19.500 C 246.005 19.500,250.348 23.734,250.853 30.000 C 251.357 36.250,254.585 39.453,260.917 39.985 C 266.215 40.430,270.192 43.731,271.091 48.430 C 272.381 55.171,267.983 60.755,260.917 61.349 C 254.584 61.880,251.350 65.090,250.856 71.333 C 250.596 74.634,249.526 77.002,247.396 78.994 C 241.345 84.655,231.323 81.415,229.616 73.247 C 229.362 72.030,229.317 72.044,229.027 73.435 C 228.304 76.908,225.544 79.626,221.761 80.589 C 220.494 80.912,220.357 80.976,220.917 80.989 C 225.563 81.096,229.932 85.893,230.338 91.333 C 230.735 96.637,233.236 99.929,237.743 101.080 C 243.560 102.565,249.833 97.978,249.833 92.240 C 249.833 85.937,254.218 81.269,260.490 80.894 C 266.379 80.542,269.898 77.161,270.342 71.428 C 270.859 64.763,274.483 60.972,280.792 60.499 C 286.931 60.039,290.833 56.217,290.833 50.667 C 290.833 45.154,286.922 41.293,280.880 40.840 C 274.477 40.361,270.862 36.609,270.342 29.905 C 269.898 24.172,266.379 20.791,260.490 20.439 C 254.218 20.064,249.833 15.396,249.833 9.093 C 249.833 3.337,243.483 -1.271,237.667 0.264 M59.397 37.485 C 54.909 38.704,52.583 41.297,52.583 45.083 C 52.583 48.968,55.089 51.248,61.004 52.743 C 65.451 53.867,67.501 55.048,67.499 56.483 C 67.495 59.862,59.340 59.305,54.400 55.587 C 52.913 54.468,53.000 54.333,53.000 57.769 L 53.000 60.650 54.068 61.412 C 60.858 66.257,71.830 64.410,73.146 58.200 C 74.187 53.288,71.486 50.080,64.838 48.335 C 59.339 46.891,58.333 46.365,58.333 44.935 C 58.333 41.703,66.641 42.071,71.526 45.521 C 71.769 45.693,72.013 45.833,72.067 45.833 C 72.122 45.833,72.167 44.495,72.167 42.860 L 72.167 39.886 71.375 39.461 C 67.743 37.508,62.497 36.643,59.397 37.485 M0.000 50.667 L 0.000 63.833 2.917 63.833 L 5.833 63.833 5.833 50.667 L 5.833 37.500 2.917 37.500 L 0.000 37.500 0.000 50.667 M17.833 50.667 L 17.833 63.833 20.667 63.833 L 23.500 63.833 23.514 53.292 L 23.528 42.750 23.874 43.500 C 24.217 44.242,25.291 46.783,26.835 50.500 C 27.272 51.554,27.968 53.204,28.380 54.167 C 28.793 55.129,29.636 57.117,30.254 58.583 C 30.872 60.050,31.620 61.813,31.916 62.500 L 32.455 63.750 36.894 63.794 L 41.333 63.839 41.333 50.669 L 41.333 37.500 38.501 37.500 L 35.669 37.500 35.626 47.597 L 35.583 57.694 34.727 55.639 C 34.257 54.508,33.460 52.608,32.957 51.417 C 32.453 50.225,31.535 48.050,30.915 46.583 C 30.296 45.117,29.393 42.979,28.909 41.833 C 28.424 40.688,27.816 39.245,27.556 38.628 L 27.083 37.505 22.458 37.503 L 17.833 37.500 17.833 50.667 M83.669 46.125 C 83.671 53.268,83.715 54.936,83.926 55.833 C 86.389 66.321,101.537 67.142,105.436 57.000 L 105.917 55.750 105.965 46.625 L 106.013 37.500 103.094 37.500 L 100.175 37.500 100.129 46.125 L 100.083 54.750 99.589 55.727 C 97.542 59.766,91.966 59.634,90.016 55.500 L 89.583 54.583 89.536 46.042 L 89.488 37.500 86.578 37.500 L 83.667 37.500 83.669 46.125 M117.667 50.667 L 117.667 63.833 120.583 63.833 L 123.500 63.833 123.500 59.578 L 123.500 55.324 125.705 55.370 L 127.909 55.417 129.878 58.667 C 130.961 60.454,132.092 62.329,132.392 62.833 L 132.938 63.750 136.219 63.795 C 138.024 63.820,139.497 63.783,139.493 63.712 C 139.489 63.641,138.263 61.558,136.767 59.083 L 134.049 54.583 134.899 54.092 C 139.834 51.244,140.616 44.506,136.500 40.315 C 133.900 37.667,133.184 37.500,124.465 37.500 L 117.667 37.500 117.667 50.667 M131.250 42.983 C 133.978 44.249,134.274 48.049,131.764 49.583 L 130.944 50.083 127.222 50.134 L 123.500 50.184 123.500 46.426 L 123.500 42.667 127.042 42.670 C 130.136 42.674,130.668 42.713,131.250 42.983 " stroke="none" fill="#fbfcfb" fill-rule="evenodd"></path><path id="path2" d="" stroke="none" fill="#aaebcc" fill-rule="evenodd"></path><path id="path3" d="M226.240 37.208 L 225.750 37.750 226.292 37.260 C 226.797 36.804,226.910 36.667,226.781 36.667 C 226.752 36.667,226.509 36.910,226.240 37.208 M212.740 64.375 L 212.250 64.917 212.792 64.427 C 213.297 63.971,213.410 63.833,213.281 63.833 C 213.252 63.833,213.009 64.077,212.740 64.375 " stroke="none" fill="#76e4b4" fill-rule="evenodd"></path><path id="path4" d="" stroke="none" fill="#c5f4dc" fill-rule="evenodd"></path></g></svg>