<svg xmlns="http://www.w3.org/2000/svg" viewBox="0 0 1070 250"><defs><style>.cls-1,.cls-2{fill:#04bfbf;}.cls-1{fill-rule:evenodd;}</style></defs><g id="Logo"><path class="cls-1" d="M211.42,107.93a8.84,8.84,0,0,0-3.26.62c-28.14-12.85-56-8.62-79.1,10.89C106,99.93,78.09,95.7,50,108.55a8.84,8.84,0,0,0-3.26-.62,8.94,8.94,0,0,0-8.84,8.58,8.85,8.85,0,0,0,17.56,1.77c23.09-12,46-8.06,66.25,9.48A90.56,90.56,0,0,0,115,138.22c-14.36,31.38-6.42,57.21,14,79.16,22-25.35,28.55-53.57,9.06-85.84-.19-.31-6.93,8.66-6.7,9.09,11.65,21.69,8.8,41.82-2.36,60.17-17.14-19.94-12.3-53.73,7.39-73,20.22-17.54,43.16-21.49,66.25-9.48a8.85,8.85,0,0,0,17.57-1.77A9,9,0,0,0,211.42,107.93Z"/><path class="cls-1" d="M203.36,85.62a8.85,8.85,0,0,0-15.77-5.51,90.27,90.27,0,0,0-58.51,12.54l0,0v0A90.31,90.31,0,0,0,70.52,80.11,8.85,8.85,0,1,0,58.25,92.67l-.18.26.39-.11a8.85,8.85,0,0,0,12.71-2.61A77.52,77.52,0,0,1,129.06,105a77.48,77.48,0,0,1,57.88-14.76,8.86,8.86,0,0,0,12.72,2.61l.38.11-.18-.26A8.83,8.83,0,0,0,203.36,85.62Z"/><path class="cls-1" d="M164.66,52.34a8.86,8.86,0,0,0-7.76,4.58A92.4,92.4,0,0,0,129.08,68.1v.06a.21.21,0,0,1,0-.06,92.46,92.46,0,0,0-27.83-11.18,8.86,8.86,0,1,0-1,10,78.79,78.79,0,0,1,28.84,13.52h0a78.65,78.65,0,0,1,28.83-13.51,8.86,8.86,0,1,0,6.77-14.57Z"/><circle class="cls-2" cx="129.06" cy="44.12" r="11.5"/><path class="cls-1" d="M255,163.74V85h36q14.93,0,22.94,8,6.78,6.75,6.77,18v.26q0,9.17-4.5,15.33a26.3,26.3,0,0,1-12.37,9.06L323,163.74H302.74l-16.87-25.21H272.26v25.21Zm17.3-40.46h17.56q6.27,0,9.79-3.06a10.15,10.15,0,0,0,3.5-8.1v-.22q0-5.49-3.6-8.36t-10-2.89H272.26v22.63Zm85.86,40.46V85h59.36v15.43H375.3v16h37.12v15.38H375.3v16.53h42.78v15.42Zm115.13,1.11q-15.86,0-25.75-11.81l10.87-12.15a29.73,29.73,0,0,0,7,6,14.61,14.61,0,0,0,7.39,2,9.78,9.78,0,0,0,7.81-3.21q2.79-3.24,2.78-9.86V85h17.78v51.51c0,9-2.47,16-7.46,21s-11.67,7.31-20.43,7.31Zm100.26.15q-16.14,0-25.1-8.92T539.47,130V85h17.28v44.54q0,9.5,4.46,14.48c3,3.34,7.12,5,12.52,5s9.54-1.61,12.52-4.84,4.45-7.91,4.45-14.05V85h17.35v44.42q0,17.52-9.14,26.55t-25.4,9Zm99.15-.71L640.81,85h19.1l20.6,55.46L701.09,85h18.67l-31.85,79.29Zm81.13-.55V85h59.36v15.43H771v16h37.11v15.38H771v16.53h42.77v15.42Z"/><path class="cls-2" d="M844.32,161.42a10.66,10.66,0,0,1-3.15-7.87,10.28,10.28,0,0,1,3.15-7.82,11.61,11.61,0,0,1,15.53,0,10.28,10.28,0,0,1,3.15,7.82,10.66,10.66,0,0,1-3.15,7.87,11.15,11.15,0,0,1-15.53,0Z"/><path class="cls-2" d="M949.62,146.8H913.06l-7,16.87H887.41l35.1-78.75h18l35.21,78.75H956.6ZM943.88,133,931.4,102.81,918.91,133Z"/><path class="cls-2" d="M1001.93,84.92h18.23v78.75h-18.23Z"/></g></svg>