<svg width="154" height="54" viewBox="0 0 154 54" fill="none" xmlns="http://www.w3.org/2000/svg">
<path d="M13.4217 9.7973C12.1201 11.0391 10.9753 12.3989 10.3299 13.9019C9.68508 15.3582 9.51322 16.9825 9.83881 18.5431C10.0963 20.0378 10.8287 21.4077 11.9255 22.4464C13.0113 23.5336 14.4803 24.4278 16.0348 25.3867C17.579 26.3563 19.2776 27.4076 20.6815 29.0085C22.092 30.6289 22.9221 32.6797 23.0389 34.8323C23.1817 36.8998 22.6741 38.96 21.5884 40.7199C20.5112 42.4377 18.9811 43.6989 17.3759 44.6623C17.167 44.7875 16.8978 44.7304 16.7567 44.5309C16.6157 44.3314 16.6501 44.0562 16.8357 43.8981C18.1898 42.7338 19.3576 41.3792 20.0459 39.863C20.7252 38.3727 20.9294 36.7067 20.6303 35.0945C20.3952 33.5531 19.6457 32.1385 18.5055 31.0843C17.3879 30.0054 15.9137 29.1441 14.3444 28.2219C12.7868 27.2869 11.0687 26.2989 9.59105 24.7461C8.84473 23.9492 8.23498 23.0329 7.78675 22.0345C7.36174 21.0378 7.10418 19.9768 7.02461 18.8949C6.88048 16.8063 7.3681 14.5952 8.5235 12.8857C9.6403 11.2591 11.1445 9.94127 12.898 9.05324C13.1005 8.94551 13.3509 9.00568 13.4833 9.19393C13.6158 9.38217 13.5894 9.64023 13.4217 9.7973Z" fill="white"/>
<path d="M17.1287 9.03634C18.3539 9.61849 19.4634 10.4211 20.4028 11.4048C20.8984 11.9408 21.3356 12.5288 21.7071 13.1586C22.0848 13.8292 22.3793 14.5441 22.5842 15.2871C22.7792 16.049 22.8815 16.832 22.8889 17.6189C22.8731 18.3996 22.6827 22.1853 20.6111 24.0066C20.348 24.1927 20.0221 24.2652 19.7058 24.208C19.3895 24.1507 19.1089 23.9685 18.9265 23.7018C18.6695 23.3022 18.646 22.794 18.8651 22.3721L18.8915 22.323C19.4474 21.2662 21.7589 17.1585 19.1204 12.6252C18.4122 11.5855 17.6057 10.6175 16.7121 9.73475L16.709 9.73198C16.5533 9.56611 16.5456 9.30889 16.6912 9.13389C16.7979 9.00463 16.9779 8.9645 17.1287 9.03634Z" fill="white"/>
<path d="M12.9444 44.6937C11.7194 44.1113 10.6099 43.3087 9.67039 42.3252C9.17471 41.7891 8.73744 41.2011 8.36606 40.5711C7.98833 39.9006 7.69375 39.1859 7.48895 38.443C7.29388 37.6809 7.19167 36.8978 7.18457 36.1108C7.20001 35.3301 7.3908 31.5447 9.46208 29.7234C9.72512 29.5373 10.051 29.4648 10.3673 29.522C10.6837 29.5793 10.9642 29.7615 11.1466 30.0282C11.4038 30.4277 11.4273 30.936 11.208 31.3579L11.1816 31.407C10.6257 32.4638 8.31423 36.5712 10.9531 41.1048C11.6612 42.1446 12.4677 43.1126 13.3614 43.9953L13.3641 43.998C13.5199 44.1639 13.5275 44.4211 13.3819 44.5961C13.2752 44.7254 13.0953 44.7656 12.9444 44.6937Z" fill="white"/>
<path d="M32.1414 29.4208H30.5107C30.5107 31.3302 32.2646 33.116 34.7378 33.116C37.1051 33.116 38.5605 31.6841 38.7713 29.9335C39.017 27.9888 37.8067 26.6978 35.5443 26.1147L33.9657 25.7261C32.4398 25.3548 32.2468 24.5586 32.2468 24.0285C32.2468 22.9148 33.3345 22.1896 34.5093 22.1896C35.8249 22.1896 36.7895 22.9679 36.7895 24.1879H38.4207C38.4207 21.995 36.7368 20.6162 34.527 20.6162C32.4748 20.6162 30.6161 21.995 30.6161 24.0459C30.6161 25.1071 31.0016 26.5742 33.5625 27.2284L35.1233 27.6176C36.2104 27.8647 37.2804 28.4837 37.175 29.792C37.0352 30.7118 36.2809 31.5779 34.7378 31.5779C33.2119 31.5779 32.1592 30.482 32.1414 29.4208Z" fill="white"/>
<path d="M42.7149 32.9385H41.1369V24.6825H42.7149V32.9385ZM40.8213 21.6414C40.8593 22.2283 41.3427 22.6847 41.9262 22.6847C42.5096 22.6847 42.993 22.2283 43.031 21.6414C42.9927 21.0547 42.5094 20.5986 41.9262 20.5986C41.3429 20.5986 40.8597 21.0547 40.8213 21.6414Z" fill="white"/>
<path d="M47.0172 28.4835C47.0172 26.7334 48.1748 26.0792 49.3324 26.0792C50.4544 26.0792 51.1389 26.8928 51.1389 28.2716V32.9386H52.7346V28.1653C52.7346 25.8494 51.612 24.5059 49.5775 24.5059C48.6834 24.5059 47.5081 24.9297 47.0172 25.9199V24.6825H45.4209V32.9386H47.0172V28.4835Z" fill="white"/>
<path d="M56.6144 34.1234C56.4036 34.2296 55.4917 34.7423 55.281 34.8307C56.0075 36.2095 57.4334 37.0677 58.9822 37.0583C61.6829 37.0583 63.4539 35.5732 63.4539 31.6839V24.6825H61.8759V25.973C61.3323 25.0186 60.1392 24.5059 58.9994 24.5059C56.7541 24.5059 54.8428 26.2028 54.8428 28.8374C54.8428 31.4535 56.7541 33.1158 58.9994 33.1158C60.1392 33.1158 61.3844 32.5679 61.8759 31.5956C61.8759 31.666 61.8936 31.7191 61.8936 31.7896C61.8936 34.5298 60.7532 35.538 58.9822 35.538C57.9966 35.5351 57.0901 34.9935 56.6144 34.1234ZM61.8581 28.8195C61.8674 29.5475 61.5835 30.2483 61.0711 30.7615C60.5588 31.2747 59.8619 31.5565 59.1397 31.5425C57.6666 31.5425 56.474 30.4991 56.474 28.8195C56.4508 28.0951 56.7225 27.3926 57.2259 26.8751C57.7293 26.3575 58.4208 26.07 59.1397 26.0792C60.5951 26.0792 61.8581 27.0515 61.8581 28.8195Z" fill="white"/>
<path d="M71.7737 29.1377C71.7737 30.9057 70.6161 31.5425 69.4585 31.5425C68.3365 31.5425 67.6698 30.729 67.6698 29.3496V24.6826H66.0734V29.4558C66.0563 31.7717 67.1789 33.1159 69.2306 33.1159C70.1247 33.1159 71.2828 32.6915 71.7737 31.7013V32.9386H73.3694V24.6826H71.7737V29.1377Z" fill="white"/>
<path d="M76.0791 20.1914V32.9384H77.6755V20.1914H76.0791Z" fill="white"/>
<path d="M86.9306 32.9386H88.5091V24.6825H86.9306V25.9199C86.387 24.9828 85.1939 24.5059 84.0541 24.5059C81.8094 24.5059 79.8975 26.1676 79.8975 28.8016C79.8975 31.4183 81.8094 33.1158 84.0541 33.1158C85.1939 33.1158 86.387 32.6031 86.9306 31.666V32.9386ZM86.9128 28.7843C86.9128 30.5343 85.6498 31.5424 84.1944 31.5424C83.4726 31.5506 82.7791 31.2602 82.2754 30.739C81.7717 30.2178 81.5019 29.5114 81.5287 28.7843C81.5006 28.0617 81.7718 27.3598 82.2774 26.8468C82.783 26.3337 83.4774 26.0557 84.1944 26.0792C85.5101 26.0792 86.9128 27.0163 86.9128 28.7843Z" fill="white"/>
<path d="M92.8203 29.9331C92.8203 27.7408 93.4865 26.0433 95.065 26.0433C95.4842 26.0468 95.8975 26.1436 96.2753 26.3268L96.521 24.8239C96.08 24.6032 95.5923 24.494 95.1 24.5057C94.0306 24.5057 93.2413 25.0889 92.8204 26.5387V24.6824H91.2246V32.9384H92.8203V29.9331Z" fill="white"/>
<path d="M99.8248 32.9394H98.2463V24.6834H99.8248V32.9394ZM97.9307 21.6423C97.9689 22.2292 98.4523 22.6856 99.0358 22.6856C99.6193 22.6856 100.103 22.2292 100.141 21.6423C100.102 21.0556 99.6191 20.5996 99.0358 20.5996C98.4526 20.5996 97.9692 21.0556 97.9307 21.6423Z" fill="white"/>
<path d="M104.693 24.6829V21.5713H103.097V24.6829H101.624V26.0438H103.097V32.9389H104.693V26.0438H106.429V24.6829H104.693Z" fill="white"/>
<path d="M110.989 36.9527L116.075 24.6826H114.374L111.919 30.6586L109.464 24.6826H107.763L111.042 32.6916L109.323 36.9527H110.989Z" fill="white"/>
<path d="M126.683 32.9388V20.7578H125.052V29.8633L119.597 20.7578H117.983V32.9388H119.615V23.7631L125.121 32.9388H126.683Z" fill="white"/>
<path d="M130.095 20.7578V32.9388H137.426V31.4006H131.726V27.7239H136.549V26.1857H131.726V22.296H137.25V20.7578H130.095Z" fill="white"/>
<path d="M139.021 20.7578V22.3139H142.686V32.9388H144.335V22.3139H148V20.7578H139.021Z" fill="white"/>
</svg>
