<?xml version="1.0" encoding="UTF-8"?><svg id="Artwork" xmlns="http://www.w3.org/2000/svg" xmlns:xlink="http://www.w3.org/1999/xlink" viewBox="0 0 133 40"><defs><style>.cls-1{fill:url(#linear-gradient-2);}.cls-2{fill:url(#linear-gradient-6);}.cls-3{fill:url(#linear-gradient-5);}.cls-4{fill:url(#linear-gradient-7);}.cls-5{fill:url(#linear-gradient-3);}.cls-6{fill:url(#linear-gradient);}.cls-7{fill:url(#linear-gradient-4);}</style><linearGradient id="linear-gradient" x1="66.5" y1="3434.04455" x2="66.5" y2="3457.09415" gradientTransform="translate(0 -3414.1)" gradientUnits="userSpaceOnUse"><stop offset="0" stop-color="#fefefe"/><stop offset="1" stop-color="#d0af21"/></linearGradient><linearGradient id="linear-gradient-2" x1="70.27463" y1="2.6246" x2="70.27463" y2="21.66819" gradientTransform="matrix(1,0,0,1,0,0)" xlink:href="#linear-gradient"/><linearGradient id="linear-gradient-3" x1="54.16824" y1="10.02433" x2="54.16824" y2="21.53135" gradientTransform="matrix(1,0,0,1,0,0)" xlink:href="#linear-gradient"/><linearGradient id="linear-gradient-4" x1="63.70026" y1="-3.17312" x2="63.70026" y2="16.99398" gradientTransform="matrix(1,0,0,1,0,0)" xlink:href="#linear-gradient"/><linearGradient id="linear-gradient-5" x1="57.22493" y1="2.63205" x2="57.22493" y2="21.67609" gradientTransform="matrix(1,0,0,1,0,0)" xlink:href="#linear-gradient"/><linearGradient id="linear-gradient-6" x1="73.31565" y1="10.03529" x2="73.31565" y2="21.52252" gradientTransform="matrix(1,0,0,1,0,0)" xlink:href="#linear-gradient"/><linearGradient id="linear-gradient-7" x1="63.2514" y1="3415.39201" x2="63.2514" y2="3435.82301" xlink:href="#linear-gradient"/></defs><path class="cls-6" d="m105.03069,29.41621v4.78364c0,2.58615.14949,4.42486.35877,5.60582h-4.35012c.20928-1.18096.35877-2.98977.35877-5.60582v-4.78364c0-2.58615-.14949-4.42486-.35877-5.60582h4.35012c-.20928,1.18096-.35877,2.98977-.35877,5.60582Zm-86.64359,2.88513c-4.82848-2.98977-13.0653-1.76397-13.0653-4.06609s1.53973-2.04799,5.83006-2.04799,6.5775,1.18096,8.77498,2.15264l-1.22581-3.52793c-1.61448-.71754-4.39497-1.22581-7.1904-1.22581-4.60425,0-6.98112.89693-8.5657,2.22738-1.4351,1.19591-1.86861,2.13769-2.94493,2.88513.86703.6428,1.43509,1.68922,2.94493,2.58615,4.82848,2.98977,13.0653,1.76397,13.0653,4.06609s-1.53973,2.04799-5.83006,2.04799-6.5775-1.18096-8.77498-2.15263l1.22581,3.52793c1.61448.71754,4.39496,1.22581,7.1605,1.22581h0c4.57435,0,6.98112-.89693,8.5657-2.22738,1.43509-1.18096,1.86861-2.12274,2.94493-2.88513-.86703-.6428-1.43509-1.68922-2.94493-2.58615h.0299Zm30.22659-.50826c-1.50984,1.30055-3.09441,3.78206-4.78364,5.3218-2.09284,1.86861-4.49961,2.88513-7.66877,2.88513s-5.57592-1.00157-7.66877-2.88513c-1.73407-1.53973-3.3037-4.03619-4.78363-5.3218,1.50983-1.30055,3.09441-3.78206,4.78363-5.32179,2.09284-1.86861,4.49961-2.88513,7.66877-2.88513s5.57592,1.00157,7.66877,2.88513c1.73407,1.53973,3.3037,4.03619,4.78364,5.32179Zm-5.54603,0c0-2.58615-2.91503-5.39654-6.90637-5.39654s-6.90637,2.81039-6.90637,5.39654,2.91503,5.39654,6.90637,5.39654,6.90637-2.81039,6.90637-5.39654Zm78.15263-8.20692c-3.73721,0-7.41463,4.17073-11.73485,16.18961h4.14083c2.6609-8.95437,5.24705-13.16995,7.59402-13.16995s3.2439,1.86861,4.96302,5.72542c-3.42329-1.22581-8.38631-1.15106-9.28324,1.65932,3.12431-.35878,6.29347-.17938,8.10228.583,2.01809.86704,3.01966,2.40677,3.85681,5.18726h4.14083c-4.32022-12.01888-7.98269-16.18961-11.73485-16.18961l-.02989.0299-.01495-.01495Zm-57.20928.17939h-11.55547c.20928,1.18096.35878,2.98977.35878,5.60582v4.78364c0,2.58615-.14949,4.42486-.35878,5.60582h4.35012c-.20928-1.18096-.35878-2.98977-.35878-5.60582v-7.87805h7.48938c2.55625,0,3.85681.82219,3.85681,2.51141s-1.30055,2.51141-3.85681,2.51141h-1.79386c-2.70575,0-4.14083,1.12116-4.35012,2.51141h6.21873c5.00787,0,7.51927-1.68922,7.51927-5.03776s-2.51141-5.03776-7.51927-5.03776h0v.02989Zm16.04012,0h-4.35012c.20928,1.18096.35878,2.98977.35878,5.60582v4.78364c0,2.58615-.14949,4.42486-.35878,5.60582h4.35012c-.20928-1.18096-.35878-2.98977-.35878-5.60582v-4.78364c0-2.58615.14949-4.42486.35878-5.60582Zm15.00866,0h-4.35012c.20928,1.18096.35878,2.98977.35878,5.60582v1.94335h-5.65067c-2.70575,0-4.14083,1.12116-4.35012,2.51141h10.00078v.35878c0,2.58615-.14949,4.42486-.35878,5.60582h4.35012c-.20928-1.18096-.35878-2.98977-.35878-5.60582v-4.78364c0-2.58615.14949-4.42486.35878-5.60582v-.0299Z"/><path class="cls-1" d="m65.42704,19.17875c2.2259,0,5.47069-1.75564,7.32037-4.63989,1.92806-3.00182,1.77131-7.22632,2.37481-8.90358-1.54402-.07838-3.52695.17243-5.00043.56431v1.82617c.68188-.26648,1.75564-.45458,2.45319-.45458-.14891,5.39231-2.97831,9.52275-7.13227,11.62325l-.01568-.01568Z"/><path class="cls-5" d="m60.54418,19.82144c-3.48776-.28216-7.79063-3.18993-9.4914-5.37663.43107-.22729,1.19132-.52512,1.8105-.68188-.32134-.50945-.64269-1.31673-.7916-1.92806-1.52834.52512-3.29965,1.52834-4.27936,2.414,1.37943.68188,3.09588,2.75102,5.18853,4.07558,3.00182,1.90455,5.48636,1.88888,7.56334,1.51267,0,0,0-.01568,0-.01567Z"/><path class="cls-7" d="m64.33761,12.71268c.01568-1.77131-3.05669-4.50665-3.05669-6.8893s1.07376-2.6021,2.45319-3.39371c1.56753,1.09727,3.58181,3.54262,4.67908,5.69798.64269-2.90777-1.00322-5.71365-4.67908-8.12765-2.24157,1.09727-4.88286,3.52695-4.88286,5.88608s2.42967,5.6196,4.88286,8.48818c.28216-.33702.58782-.94052.6035-1.66158Z"/><path class="cls-3" d="m62.05685,19.20226c-4.16963-2.09265-6.98335-6.2231-7.13227-11.62325.68188,0,1.77131.1881,2.45319.45458v-1.82617c-1.47348-.39972-3.47208-.64269-5.00043-.56431.6035,1.67726.45458,5.90176,2.37481,8.90358,1.84969,2.88426,5.09448,4.63989,7.32037,4.63989,0,0-.01568.01568-.01567.01568Z"/><path class="cls-2" d="m79.69158,14.2567c-.97971-.86998-2.75102-1.88888-4.27936-2.414-.14891.6035-.49377,1.43429-.7916,1.92806.61918.17243,1.37943.45458,1.8105.68188-1.70077,2.18671-5.99581,5.09448-9.4914,5.37663,2.07698.37621,4.56152.39972,7.56334-1.51267,2.09265-1.31673,3.8091-3.39371,5.18853-4.07558,0,0,0,.01568,0,.01567Z"/><path class="cls-4" d="m63.73411,19.06902c2.56291-1.41862,4.92205-4.30287,4.92205-6.6385s-3.07236-5.98013-4.92205-7.92387c-.28216.28216-.54864.83079-.54864,1.3951,0,1.66158,3.05669,4.85151,3.05669,6.58363s-.92484,2.88426-2.49238,3.95802c-2.21022-1.56753-4.49098-4.53017-5.58041-7.28118-1.22268,3.05669,1.11295,7.07741,5.58041,9.88329l-.01568.01568v.00784Z"/></svg>