<svg width="154" height="54" viewBox="0 0 154 54" fill="none" xmlns="http://www.w3.org/2000/svg">
<g clip-path="url(#clip0_1395_15870)">
<path d="M50.7184 23.2267H46.5645V20.7785H57.8761V23.2267H53.7222V33.7598H50.7184V23.2267ZM60.722 25.0996C61.0679 24.6173 61.5317 24.2525 62.1126 24.0052C62.7059 23.7583 63.3858 23.6344 64.1523 23.6344V26.3051C63.8312 26.2802 63.6147 26.2678 63.5033 26.2678C62.6751 26.2678 62.026 26.5027 61.5562 26.9725C61.0864 27.4299 60.8514 28.1222 60.8514 29.0495V33.7598H57.9587V23.7827H60.722V25.0996ZM74.8835 23.7827V33.7598H72.1386V32.5728C71.7554 33.0054 71.298 33.3393 70.7664 33.5742C70.2349 33.7967 69.66 33.9082 69.0418 33.9082C67.7314 33.9082 66.6931 33.5309 65.9266 32.7769C65.1601 32.0228 64.7769 30.904 64.7769 29.4203V23.7827H67.6696V28.9938C67.6696 30.6009 68.3435 31.4047 69.6909 31.4047C70.3832 31.4047 70.9396 31.1822 71.3601 30.7368C71.7803 30.2794 71.9903 29.6059 71.9903 28.7156V23.7827H74.8835ZM79.8075 33.9082C78.9789 33.9082 78.1691 33.8091 77.3782 33.6115C76.5868 33.401 75.9562 33.1417 75.4864 32.8326L76.4509 30.7556C76.8959 31.0399 77.4335 31.2748 78.0641 31.46C78.6946 31.6332 79.3128 31.7198 79.9185 31.7198C81.1424 31.7198 81.7546 31.4171 81.7546 30.811C81.7546 30.5267 81.5874 30.3227 81.2539 30.1992C80.9199 30.0757 80.4068 29.9703 79.7145 29.8837C78.8987 29.7602 78.2248 29.6179 77.6932 29.4576C77.1617 29.2968 76.6983 29.0122 76.3026 28.6045C75.9193 28.1964 75.7277 27.6155 75.7277 26.8611C75.7277 26.2309 75.9069 25.6745 76.2653 25.1922C76.6361 24.6975 77.1677 24.3143 77.86 24.0425C78.5648 23.7707 79.393 23.6344 80.3451 23.6344C81.0498 23.6344 81.7482 23.715 82.4405 23.8757C83.1452 24.024 83.7265 24.2341 84.1839 24.5059L83.2194 26.5644C82.3419 26.0701 81.3838 25.8228 80.3451 25.8228C79.7269 25.8228 79.2635 25.9094 78.9544 26.0822C78.6453 26.2553 78.4906 26.4778 78.4906 26.75C78.4906 27.0591 78.6578 27.2752 78.9913 27.3991C79.3252 27.5225 79.8568 27.64 80.586 27.7514C81.4022 27.8873 82.0697 28.0357 82.5888 28.1964C83.1083 28.3447 83.5593 28.6229 83.9426 29.031C84.3258 29.4387 84.5174 30.0076 84.5174 30.7368C84.5174 31.3549 84.3322 31.9054 83.9614 32.3872C83.5902 32.8695 83.0462 33.2467 82.3294 33.5185C81.6247 33.7783 80.784 33.9082 79.8075 33.9082ZM91.6247 33.2776C91.3404 33.4876 90.9881 33.6484 90.5675 33.7598C90.1598 33.8584 89.7269 33.9082 89.2695 33.9082C88.0829 33.9082 87.1617 33.6051 86.5066 32.9994C85.8636 32.3936 85.5421 31.5033 85.5421 30.3291V26.2309H84.0031V24.0052H85.5421V21.5763H88.4349V24.0052H90.9199V26.2309H88.4349V30.2918C88.4349 30.7123 88.5403 31.0399 88.7503 31.2748C88.9728 31.4973 89.2819 31.6087 89.6776 31.6087C90.135 31.6087 90.5242 31.4848 90.8458 31.2375L91.6247 33.2776ZM116.099 20.7785L111.852 33.7598H108.626L105.77 24.9697L102.821 33.7598H99.613L95.348 20.7785H98.4633L101.393 29.9026L104.453 20.7785H107.235L110.202 29.9767L113.225 20.7785H116.099ZM119.741 23.6344C121.286 23.6344 122.473 24.0052 123.301 24.7472C124.13 25.4764 124.544 26.5829 124.544 28.0665V33.7598H121.836V32.5171C121.293 33.4443 120.279 33.9082 118.795 33.9082C118.029 33.9082 117.361 33.7783 116.792 33.5185C116.236 33.2591 115.809 32.9003 115.513 32.4429C115.216 31.9855 115.068 31.4664 115.068 30.8851C115.068 29.9583 115.414 29.2287 116.106 28.6971C116.811 28.1655 117.893 27.8998 119.352 27.8998H121.651C121.651 27.2692 121.459 26.7869 121.076 26.4534C120.693 26.107 120.118 25.9338 119.352 25.9338C118.82 25.9338 118.294 26.0204 117.775 26.1936C117.268 26.3544 116.836 26.5769 116.477 26.8611L115.439 24.8398C115.983 24.4566 116.632 24.1599 117.386 23.9499C118.152 23.7394 118.937 23.6344 119.741 23.6344ZM119.518 31.9607C120.013 31.9607 120.452 31.8496 120.835 31.6272C121.218 31.3922 121.49 31.0523 121.651 30.6073V29.5871H119.667C118.48 29.5871 117.886 29.9767 117.886 30.7556C117.886 31.1265 118.029 31.4231 118.313 31.6456C118.61 31.8557 119.012 31.9607 119.518 31.9607ZM126.049 20H128.942V33.7598H126.049V20ZM130.515 20H133.408V33.7598H130.515V20ZM144.753 28.8082C144.753 28.8454 144.734 29.1052 144.697 29.5871H137.149C137.285 30.2052 137.607 30.6935 138.114 31.0523C138.621 31.4107 139.251 31.5899 140.005 31.5899C140.525 31.5899 140.982 31.5157 141.378 31.3674C141.785 31.2066 142.163 30.9597 142.508 30.6257L144.048 32.2946C143.108 33.3702 141.736 33.9082 139.931 33.9082C138.806 33.9082 137.811 33.6917 136.945 33.2591C136.08 32.8138 135.412 32.202 134.943 31.4231C134.473 30.6442 134.238 29.7602 134.238 28.7713C134.238 27.7947 134.467 26.9168 134.924 26.1379C135.394 25.347 136.031 24.7348 136.834 24.3023C137.65 23.8569 138.559 23.6344 139.56 23.6344C140.537 23.6344 141.421 23.8448 142.212 24.265C143.003 24.6855 143.621 25.2912 144.066 26.0822C144.524 26.8611 144.753 27.7699 144.753 28.8082ZM139.579 25.8228C138.923 25.8228 138.373 26.008 137.928 26.3792C137.483 26.75 137.211 27.2567 137.112 27.8998H142.027C141.928 27.2692 141.656 26.7685 141.21 26.3977C140.765 26.0144 140.221 25.8228 139.579 25.8228ZM152.001 33.2776C151.716 33.4876 151.364 33.6484 150.944 33.7598C150.536 33.8584 150.103 33.9082 149.646 33.9082C148.459 33.9082 147.538 33.6051 146.882 32.9994C146.239 32.3936 145.918 31.5033 145.918 30.3291V26.2309H144.379V24.0052H145.918V21.5763H148.811V24.0052H151.296V26.2309H148.811V30.2918C148.811 30.7123 148.916 31.0399 149.126 31.2748C149.349 31.4973 149.658 31.6087 150.053 31.6087C150.511 31.6087 150.9 31.4848 151.222 31.2375L152.001 33.2776Z" fill="#3375BB"/>
<path d="M25.4166 8H12.8476C5.75208 8 0 13.7521 0 20.8476V33.4166C0 40.5122 5.75208 46.2643 12.8476 46.2643H25.4166C32.5122 46.2643 38.2643 40.5122 38.2643 33.4166V20.8476C38.2643 13.7521 32.5122 8 25.4166 8Z" fill="white" stroke="#DFE5EC" stroke-width="0.400881"/>
<path d="M1.46094 26.7797C1.46094 16.9601 9.42119 9 19.2406 9C29.0601 9 37.0204 16.9601 37.0204 26.7797C37.0204 36.5993 29.0601 44.5596 19.2406 44.5596C9.42119 44.5596 1.46094 36.5993 1.46094 26.7797Z" fill="white"/>
<path d="M19.2522 17C22.84 19.9966 26.9547 19.8118 28.1301 19.8118C27.8731 36.8532 25.9136 33.4738 19.2522 38.2523C12.5908 33.4738 10.6438 36.8532 10.3867 19.8118C11.55 19.8118 15.6644 19.9966 19.2522 17Z" stroke="#3375BB" stroke-width="2.43056" stroke-miterlimit="10" stroke-linecap="round" stroke-linejoin="round"/>
</g>
<defs>
<clipPath id="clip0_1395_15870">
<rect width="154" height="54" fill="white"/>
</clipPath>
</defs>
</svg>
